
<svg xmlns="http://www.w3.org/2000/svg" width="230.87mm" height="48.790001mm" viewBox="0 0 230.87001 48.790003" version="1.1" id="svg80">
  <defs id="defs74"></defs>
  
  
  <g id="layer1">
    <path id="rect65" fill="#0278cf" fill-opacity="1" stroke-width="0.286842" d="M 0,0 H 23.556746 V 23.556793 H 0 Z" style="fill:#0278cf"></path>
    <path id="rect165" fill="#0278cf" fill-opacity="1" stroke-width="0.286842" d="M 25.206077,23.556793 V 0 h 23.556748 v 23.556793 z" style="fill:#0278cf"></path>
    <path id="rect413" fill="#0278cf" fill-opacity="1" stroke-width="0.286842" d="M 0,25.206135 H 23.556746 V 48.76293 H 0 Z" style="fill:#0278cf"></path>
    <path id="rect415" fill="#0278cf" fill-opacity="1" stroke-width="0.286842" d="M 25.206077,48.76293 V 25.206135 H 48.762825 V 48.76293 Z" style="fill:#0278cf"></path>
    <path d="M 103.59582,9.7651399 95.492293,39.021515 H 89.945599 L 84.316426,18.558372 q -0.350537,-1.305724 -0.43301,-2.856267 h -0.08249 q -0.103099,1.448537 -0.494866,2.81546 l -5.649797,20.50395 h -5.67041 L 63.717362,9.7651399 h 5.381733 l 5.36112,21.4220251 q 0.329913,1.346532 0.412392,2.815473 h 0.103092 q 0.08248,-1.040498 0.577358,-2.815473 L 81.615239,9.7651399 h 5.051825 l 5.60855,21.5852501 q 0.288671,1.101696 0.43301,2.611439 h 0.08249 q 0.06187,-1.02009 0.474252,-2.693051 L 98.523382,9.7651399 Z" id="path19153" font-weight="600" font-size="146.443px" font-family="'Segoe UI'" letter-spacing="-3.51863" fill="#0278cf" fill-opacity="1" stroke-width="0.288364" style="fill:#0278cf"></path>
    <path d="m 110.71664,39.022206 h -4.78376 V 18.130382 h 4.78376 z" id="path19201" font-weight="600" font-size="146.443px" font-family="'Segoe UI'" letter-spacing="-3.51863" fill="#0278cf" fill-opacity="1" stroke-width="0.288364" style="fill:#0278cf"></path>
    <path d="m 108.36491,14.646898 q -1.19894,0 -2.06134,-0.770048 -0.84136,-0.770058 -0.84136,-1.956352 0,-1.186303 0.84136,-1.9771646 0.8624,-0.7908626 2.06134,-0.7908626 1.24102,0 2.10342,0.7908626 0.86241,0.7908616 0.86241,1.9771646 0,1.123862 -0.86241,1.935538 -0.8624,0.790862 -2.10342,0.790862 z" id="path19155" font-weight="600" font-size="146.443px" font-family="'Segoe UI'" letter-spacing="-3.51863" fill="#0278cf" fill-opacity="1" stroke-width="0.294158" style="fill:#0278cf"></path>
    <path d="m 134.38283,39.022206 h -4.73587 V 27.250157 c 0,-3.485287 -1.3813,-5.766689 -4.1439,-5.766689 -1.44253,0 -2.6333,0.48221 -3.57233,1.570331 -0.93899,1.074516 -1.4085,2.51533 -1.4085,4.053545 v 11.914862 h -4.75629 V 18.130382 h 4.75629 v 2.855458 c 0.88161,-1.526992 3.48424,-3.345106 6.60533,-3.345106 3.05863,0 4.57852,0.987286 5.64907,2.312578 1.19758,1.468956 1.6062,3.407427 1.6062,6.297134 z" id="path19157" font-weight="600" font-size="146.443px" font-family="'Segoe UI'" letter-spacing="-3.51863" fill="#0278cf" fill-opacity="1" stroke-width="0.286918" style="fill:#0278cf"></path>
    <path id="path20723" d="m 153.64156,8.092602 v 11.985693 h -0.3608 c -0.7191,-1.273002 -2.87314,-2.437591 -5.84659,-2.437591 -2.83582,0 -5.10899,1.040617 -6.81862,3.121631 -1.69606,2.081024 -2.54403,4.849052 -2.54403,8.303823 0,3.223538 0.79341,5.710836 2.32664,7.587837 1.62444,1.956901 3.97912,2.624702 6.14018,2.624702 3.76507,0 5.85559,-1.696974 6.95979,-3.020795 h 0.14343 v 2.764204 h 4.72166 V 8.092602 Z m -5.04601,13.404721 c 2.93205,-0.162665 5.34759,2.701332 5.10991,5.54033 -0.0222,2.102629 0.23561,4.372368 -1.05212,6.199404 -1.02949,1.852223 -3.26107,2.64861 -5.2847,2.318243 -2.56461,-0.253519 -4.1216,-2.79782 -4.35919,-5.169295 -0.25317,-2.555755 -0.0452,-5.481285 1.79444,-7.452253 0.97492,-1.026701 2.4065,-1.452257 3.79166,-1.436429 z" font-weight="600" font-size="146.443px" font-family="'Segoe UI'" letter-spacing="-3.51863" display="inline" fill="#0278cf" fill-opacity="1" stroke-width="0.286489" style="fill:#0278cf"></path>
    <path id="path22175" d="m 173.11251,17.529777 c -3.37563,0 -6.06285,0.991932 -8.06121,2.976537 -1.98486,1.984603 -2.97709,4.742899 -2.97709,8.274118 0,3.243801 0.95167,5.851095 2.85552,7.822013 1.91734,1.957233 4.47624,2.935638 7.67633,2.935638 3.29461,0 5.91406,-1.006018 7.85842,-3.017993 1.95785,-2.02566 2.93674,-4.715218 2.93674,-8.068514 0,-3.421732 -0.90499,-6.097205 -2.71433,-8.027056 -1.80933,-1.929862 -4.33379,-2.894743 -7.57438,-2.894743 z m -0.26709,4.013008 c 1.88462,-0.07569 3.81255,0.866659 4.69644,2.573727 1.14335,2.154097 1.16729,4.749488 0.69301,7.092021 -0.41041,1.979859 -1.88905,3.828787 -3.95149,4.193451 -2.16698,0.480269 -4.69256,-0.152253 -5.99787,-2.048124 -1.4875,-2.104954 -1.54646,-4.900911 -1.00994,-7.335919 0.48498,-2.201342 2.28224,-4.164912 4.59111,-4.4085 0.32407,-0.04585 0.65151,-0.06698 0.97874,-0.06668 z" font-weight="600" font-size="146.443px" font-family="'Segoe UI'" letter-spacing="-3.51863" display="inline" fill="#0278cf" fill-opacity="1" stroke-width="0.286689" style="fill:#0278cf"></path>
    <path d="m 215.66846,18.103492 -6.22713,20.918714 h -5.01058 L 200.4522,24.844873 c -0.15122,-0.544752 -0.15077,-0.539556 -0.28867,-1.264874 h -0.0825 c -0.15267,0.491571 -0.15121,0.488598 -0.37117,1.224017 l -4.02188,14.21819 h -4.90748 l -6.20656,-20.918714 h 4.94872 l 3.69194,15.076179 c 0.12371,0.449433 0.11655,0.452557 0.24743,1.224005 h 0.14434 c 0.15776,-0.616815 0.15121,-0.611145 0.32991,-1.264863 l 4.4116,-15.035321 h 4.49509 l 3.93745,15.137468 c 0.12371,0.476663 0.12568,0.475402 0.26804,1.224108 h 0.14434 c 0.13059,-0.533039 0.1306,-0.529544 0.3093,-1.224108 l 3.60935,-15.137468 z" id="path19163" font-weight="600" font-size="146.443px" font-family="'Segoe UI'" letter-spacing="-3.51863" display="inline" fill="#0278cf" fill-opacity="1" stroke-width="0.288549" style="fill:#0278cf"></path>
    <path d="M 217.04114,38.369331 V 33.69603 c 1.63232,1.150051 3.4608,1.912062 5.44744,1.912062 2.47897,0 3.57135,-0.745331 3.57135,-2.135278 0,-0.476053 0.0197,-0.498487 -0.15101,-0.919998 -0.19925,-0.355886 -0.31385,-0.588622 -0.70611,-0.894583 -0.37962,-0.258424 -0.83516,-0.52849 -1.36661,-0.757862 -0.5188,-0.204025 -1.10087,-0.514477 -1.74622,-0.772902 -0.79718,-0.340038 -1.51843,-0.70048 -2.16378,-1.081324 -0.63269,-0.380835 -1.16415,-0.952696 -1.59438,-1.42875 -0.41756,-0.489658 -0.7339,-1.040518 -0.94902,-1.652575 -0.21511,-0.612068 -0.32268,-1.326143 -0.32268,-2.142234 0,-1.006498 0.22145,-1.890596 0.66433,-2.652275 0.44288,-0.775285 1.0376,-1.421352 1.78417,-1.938212 0.74657,-0.530454 1.56586,-1.013626 2.51489,-1.272061 0.94903,-0.27203 1.95821,-0.436558 2.97051,-0.436558 1.79682,0 3.40385,0.409688 4.82106,0.994545 l 9e-5,4.428481 c -1.0782,-1.016008 -3.67869,-1.641603 -4.6629,-1.638138 -0.48829,0.002 -0.58312,-0.01742 -1.04501,0.03534 -0.44286,0.12242 -0.83833,0.219541 -1.15467,0.437169 -0.31634,0.217618 -0.5631,0.482851 -0.74023,0.795688 -0.17716,0.299231 -0.26574,0.632461 -0.26574,0.9997 0,0.448852 0.0886,0.829686 0.26574,1.142523 0.17713,0.312827 0.43654,0.591666 0.77818,0.836485 0.35431,0.231223 0.77188,0.448852 1.25272,0.652874 0.49351,0.190417 0.55463,0.28017 1.18731,0.511403 0.83515,0.367231 1.58173,0.741277 2.23971,1.122111 0.67065,0.380845 1.24007,0.816091 1.70825,1.305739 0.46819,0.476054 0.89856,1.135125 1.15162,1.774395 0.25308,0.625663 0.30989,1.456141 0.30989,2.326632 0,1.060913 -0.22776,1.985816 -0.68329,2.774696 -0.45554,0.78888 -1.06293,1.441756 -1.82214,1.958615 -0.75923,0.516849 -1.63866,0.897685 -2.6383,1.142515 -0.98699,0.258424 -2.03093,0.387641 -3.13181,0.387641 -2.12582,0 -3.96694,-0.380845 -5.52336,-1.142523 z" id="path19165" font-weight="600" font-size="146.443px" font-family="'Segoe UI'" letter-spacing="-3.51863" display="inline" fill="#0278cf" fill-opacity="1" stroke-width="0.276664" style="fill:#0278cf"></path>
  </g>
</svg>